# xmcd
#
# Track frame offsets:
# 150
# 31620
# 49663
# 77482
# 97269
# 123504
# 142666
# 165275
# 184996
# 206129
# 226329
# 267415
#
# Disc length: 3836 seconds
#
#
# Revision: 0
# Processed by: cddbd v1.5.2PL0 Copyright (c) Steve Scherf et al.
# Submitted via: FreeRIP 2.70 
#
DISCID=990efa0c
DTITLE=Marco Antonio Solis - Una noche en Madrid
DYEAR=2008
DGENRE=Pop
TTITLE0=Amor en silencio
TTITLE1=Morenita
TTITLE2=O me voy o te vas
TTITLE3=Si te pudiera mentir
TTITLE4=Tu carcel
TTITLE5=Ojalá
TTITLE6=Como tu mujer
TTITLE7=Antes de que te vayas
TTITLE8=Donde estaré mi primavera
TTITLE9=Mas que tu amigo
TTITLE10=Si no te hubieras ido
TTITLE11=La venia Bendita
EXTD=
EXTT0=
EXTT1=
EXTT2=
EXTT3=
EXTT4=
EXTT5=
EXTT6=
EXTT7=
EXTT8=
EXTT9=
EXTT10=
EXTT11=
PLAYORDER=
